<svg width="63" height="83" viewBox="0 0 63 83" fill="none" xmlns="http://www.w3.org/2000/svg">
<path d="M2.63596 69.0805C2.45689 69.0805 2.27783 69.0567 2.09876 68.9971C1.41832 68.7826 0.928875 68.1869 0.857249 67.4839C0.845312 67.341 0.487183 64.1002 0.487183 62.1462V12.5698C0.487183 5.63558 6.13369 0 13.0814 0H50.0761C57.0238 0 62.6703 5.63558 62.6703 12.5698V47.5748C62.6703 54.509 57.0238 60.1446 50.0761 60.1446H18.2026C14.0603 60.1446 10.0373 61.8484 7.17226 64.827L3.99685 68.4609C3.65066 68.8541 3.16121 69.0686 2.6479 69.0686L2.63596 69.0805ZM13.0814 3.57436C8.1034 3.57436 4.06847 7.61339 4.06847 12.5698V62.1462C4.06847 62.3845 4.06847 62.6466 4.08041 62.9207L4.5221 62.4203C8.12727 58.691 13.0933 56.5821 18.1907 56.5821H50.0761C55.0541 56.5821 59.0891 52.5431 59.0891 47.5867V12.5698C59.0891 7.60148 55.0422 3.57436 50.0761 3.57436H13.0814Z" fill="white"/>
<path d="M24.3745 72.7502L19.2413 69.4022L13.1531 72.7502V59.1319H24.3745V72.7502Z" fill="white"/>
<path d="M28.6958 82.532H18.9308C8.75997 82.532 0.487183 75.2761 0.487183 66.3521V62.1462C0.487183 61.1573 1.287 60.3591 2.27783 60.3591C3.26865 60.3591 4.06847 61.1573 4.06847 62.1462V66.3521C4.06847 73.3102 10.7416 78.9576 18.9308 78.9576H28.6958C36.1449 78.9576 42.3286 74.2871 43.403 68.2226L34.3901 68.6158C33.3634 68.6516 32.5636 67.889 32.5278 66.912C32.4801 65.9231 33.256 65.0891 34.2349 65.0534L45.2891 64.5768C45.7905 64.553 46.2561 64.7317 46.6023 65.0772C46.9604 65.4108 47.1514 65.8755 47.1514 66.364C47.1514 75.288 38.8786 82.5439 28.7078 82.5439L28.6958 82.532Z" fill="white"/>
<path d="M11.3982 38.6984C10.4074 38.6984 9.60754 37.9001 9.60754 36.9112V18.4914C9.60754 13.9043 13.344 10.1631 17.952 10.1631H38.8906C39.8814 10.1631 40.6812 10.9614 40.6812 11.9503C40.6812 12.9392 39.8814 13.7375 38.8906 13.7375H17.952C15.3257 13.7375 13.1888 15.8702 13.1888 18.4914V36.9112C13.1888 37.9001 12.389 38.6984 11.3982 38.6984Z" fill="white"/>
</svg>
